# xmcd
#
# Track frame offsets:
#	150
#	17718
#	32162
#	45752
#	58065
#	75982
#	94712
#	109408
#	120929
#	134075
#	149003
#
# Disc length: 2275 seconds
#
# Revision: 0
# Processed by: cddbd v1.5.2PL0 Copyright (c) Steve Scherf et al.
# Submitted via: dBpowerAMP V4.0
#
DISCID=8f08e10b
DTITLE=Shea Fisher - Everyday Girl
DYEAR=2007
DGENRE=Country
TTITLE0=Better Place
TTITLE1=Just the Excuse
TTITLE2=Everyday Girl
TTITLE3=Everything To Me
TTITLE4=I Wonder
TTITLE5=Foolish Pride
TTITLE6=Cowgirl in My Jeans
TTITLE7=Freedom
TTITLE8=Girls and Me
TTITLE9=Unbelievable Women
TTITLE10=Light of the World
EXTD=
EXTT0=
EXTT1=
EXTT2=
EXTT3=
EXTT4=
EXTT5=
EXTT6=
EXTT7=
EXTT8=
EXTT9=
EXTT10=
PLAYORDER=
